<svg xmlns="http://www.w3.org/2000/svg" width="560" height="560" viewBox="0 0 140 140"><defs><clipPath id="6zgxa"><path fill="#fff" d="M70 0c38.66 0 70 31.34 70 70s-31.34 70-70 70S0 108.66 0 70 31.34 0 70 0z"/></clipPath></defs><g><g><path fill="#fff" d="M70 0c38.66 0 70 31.34 70 70s-31.34 70-70 70S0 108.66 0 70 31.34 0 70 0z"/><path fill="none" stroke="#e8eaed" stroke-linecap="round" stroke-linejoin="round" stroke-miterlimit="50" stroke-width="4" d="M70 0c38.66 0 70 31.34 70 70s-31.34 70-70 70S0 108.66 0 70 31.34 0 70 0z" clip-path="url(&quot;#6zgxa&quot;)"/></g><g><path fill="#3d3c43" d="M84.571 67.572H72.43V55.428a2.428 2.428 0 1 0-4.857 0v12.143H55.429a2.428 2.428 0 1 0 0 4.857h12.143V84.57a2.428 2.428 0 1 0 4.857 0V72.43H84.57a2.428 2.428 0 1 0 0-4.858z"/></g></g></svg>