
<svg width="15" height="16" viewBox="0 0 15 16" fill="none" xmlns="http://www.w3.org/2000/svg">
    <path d="M14.0776 6.7272C14.3283 6.7272 14.4536 6.85253 14.4536 7.1032V9.1336C14.4536 9.38427 14.3283 9.5096 14.0776 9.5096H8.8136C8.71333 9.5096 8.6632 9.55973 8.6632 9.66V14.924C8.6632 15.1747 8.53787 15.3 8.2872 15.3H6.2568C6.00613 15.3 5.8808 15.1747 5.8808 14.924V9.66C5.8808 9.55973 5.83067 9.5096 5.7304 9.5096H0.4664C0.215733 9.5096 0.0904 9.38427 0.0904 9.1336V7.1032C0.0904 6.85253 0.215733 6.7272 0.4664 6.7272H5.7304C5.83067 6.7272 5.8808 6.67707 5.8808 6.5768V1.3128C5.8808 1.06213 6.00613 0.9368 6.2568 0.9368H8.2872C8.53787 0.9368 8.6632 1.06213 8.6632 1.3128V6.5768C8.6632 6.67707 8.71333 6.7272 8.8136 6.7272H14.0776Z" fill="#494A48"/>
</svg>
