<svg xmlns="http://www.w3.org/2000/svg" width="21" height="18" viewBox="0 0 21 18">
    <g fill="none" fill-rule="evenodd">
        <g fill="#1DB4EF" fill-rule="nonzero">
            <g>
                <path d="M10.688 17.484c.445 0 .828-.16 1.15-.482l6.123-6.012c.742-.692 1.336-1.472 1.781-2.338.495-.94.742-1.867.742-2.783 0-1.732-.513-3.098-1.54-4.1C17.918.767 16.551.266 14.844.266c-1.336 0-2.722.618-4.156 1.855C9.252.884 7.867.266 6.53.266c-1.756 0-3.135.507-4.137 1.521C1.392 2.801.89 4.162.89 5.87c0 1.138.395 2.3 1.187 3.488.42.644.878 1.2 1.373 1.67l6.086 5.975c.322.322.705.482 1.15.482zm0-1.855l-6.012-5.9c-.544-.52-1.002-1.114-1.373-1.782-.42-.742-.631-1.435-.631-2.078 0-1.237.334-2.183 1.002-2.839.668-.655 1.62-.983 2.857-.983.718 0 1.497.31 2.338.928.47.321 1.027.804 1.67 1.447l.149.148.148-.148c.668-.643 1.225-1.138 1.67-1.484.841-.594 1.62-.891 2.338-.891 1.237 0 2.19.328 2.857.983.668.656 1.002 1.602 1.002 2.84 0 .667-.21 1.372-.63 2.114-.347.619-.805 1.213-1.374 1.782l-6.012 5.863z" transform="translate(-57.000000, -51.000000) translate(57.000000, 51.000000)"/>
            </g>
        </g>
    </g>
</svg>
