<svg width="18" height="24" viewBox="0 0 18 24" fill="none" xmlns="http://www.w3.org/2000/svg">
<path fill-rule="evenodd" clip-rule="evenodd" d="M16.1734 6.98976C16.1734 11.4671 16.1736 15.9444 16.1732 20.4217C16.1732 21.1988 15.7106 21.6589 14.93 21.659C10.8128 21.6591 6.69559 21.6592 2.57845 21.6589C1.81183 21.6588 1.34707 21.1961 1.34698 20.4325C1.34671 14.4803 1.34671 8.52795 1.34698 2.57571C1.34707 1.81071 1.81057 1.34802 2.57665 1.34793C5.1367 1.34757 7.69684 1.34775 10.257 1.34775H10.5128V1.61712C10.5128 2.78514 10.5118 3.95316 10.5132 5.12109C10.5145 6.05286 11.1968 6.73812 12.1254 6.73938C13.3829 6.741 14.6405 6.73974 15.8982 6.73974H16.1734V6.98976ZM11.8592 2.00574C13.0649 3.14631 14.229 4.24764 15.4297 5.38353C15.3322 5.38839 15.2839 5.3928 15.2357 5.3928C14.2258 5.39325 13.216 5.39361 12.2061 5.39289C11.9267 5.39271 11.8599 5.32773 11.8596 5.05431C11.8587 4.05954 11.8592 3.06468 11.8592 2.00574ZM17.5245 6.76422C17.5263 5.91831 17.2402 5.22819 16.6235 4.65102C15.2243 3.34152 13.8382 2.01807 12.4447 0.702453C11.9438 0.229413 11.3469 -0.00071664 10.6556 3.36047e-06C7.96063 0.00288336 5.26567 0.000813361 2.57071 0.00135336C1.06726 0.00162336 0.000847458 1.06821 0.000577458 2.57193C0.000127458 5.54445 0.000487458 8.51697 0.000487458 11.4894C0.000487458 14.4919 -0.000952542 17.4944 0.00111746 20.4968C0.00210746 21.9106 1.08949 23.0041 2.49835 23.0048C6.67552 23.0071 10.8528 23.0065 15.0299 23.0028C15.2225 23.0027 15.4197 22.9822 15.6066 22.9371C16.7615 22.6585 17.5189 21.6868 17.5193 20.4887C17.5205 15.9138 17.5146 11.339 17.5245 6.76422Z" fill="#1DB4EF"/>
<path fill-rule="evenodd" clip-rule="evenodd" d="M13.5393 8.98871C11.9006 8.98673 10.2619 8.9879 8.62324 8.98781C7.00693 8.98781 5.39071 8.98754 3.7744 8.98799C3.31873 8.98808 3.01255 9.25763 3.01075 9.6575C3.00904 10.0591 3.31495 10.3341 3.76756 10.3342C7.00756 10.3347 10.2476 10.3346 13.4876 10.3335C13.5689 10.3335 13.6533 10.3309 13.7311 10.3099C14.063 10.2202 14.2765 9.91031 14.238 9.58586C14.1967 9.23828 13.9114 8.98916 13.5393 8.98871Z" fill="#1DB4EF"/>
<path fill-rule="evenodd" clip-rule="evenodd" d="M13.4868 12.5829C10.2468 12.5824 7.00685 12.5824 3.76685 12.5829C3.31451 12.5829 3.00815 12.8585 3.01076 13.2597C3.01328 13.6602 3.31901 13.9289 3.77495 13.9291C5.38379 13.9295 6.99254 13.9293 8.60129 13.9293C10.2325 13.9293 11.8637 13.9297 13.4949 13.9289C13.9333 13.9287 14.2357 13.6566 14.2401 13.263C14.2445 12.8605 13.9387 12.5829 13.4868 12.5829Z" fill="#1DB4EF"/>
<path fill-rule="evenodd" clip-rule="evenodd" d="M6.90327 16.1777C5.84928 16.1761 4.79538 16.1762 3.74139 16.1776C3.31191 16.1781 3.00726 16.4635 3.01077 16.8562C3.01428 17.2481 3.31821 17.5224 3.75336 17.5234C4.26906 17.5246 4.78485 17.5237 5.30064 17.5237C5.83137 17.5237 6.36201 17.525 6.89274 17.5234C7.31394 17.522 7.63317 17.2255 7.62822 16.8442C7.62345 16.4685 7.31115 16.1783 6.90327 16.1777Z" fill="#1DB4EF"/>
</svg>
