<svg xmlns="http://www.w3.org/2000/svg" width="54" height="47" viewBox="0 0 54 47">
    <path fill="#C2C2C2" d="M51.75 5.875H13.525l-.818-4.095C12.502.746 11.576 0 10.5 0H1.125C.504 0 0 .493 0 1.102v2.203c0 .608.504 1.101 1.125 1.101h7.522l6.525 32.652c-1.035 1.056-1.672 2.488-1.672 4.067 0 3.245 2.686 5.875 6 5.875s6-2.63 6-5.875c.001-1.032-.276-2.045-.805-2.938h13.61c-.528.893-.806 1.906-.805 2.938 0 3.245 2.686 5.875 6 5.875s6-2.63 6-5.875c0-1.665-.708-3.167-1.845-4.236l.097-.436c.306-1.374-.763-2.672-2.198-2.672H19.102l-.88-4.406H47.51c1.059 0 1.974-.722 2.199-1.735l4.239-19.094c.305-1.373-.764-2.671-2.199-2.671zM19.5 43.328c-1.24 0-2.25-.988-2.25-2.203 0-1.215 1.01-2.203 2.25-2.203s2.25.988 2.25 2.203c0 1.215-1.01 2.203-2.25 2.203zm24 0c-1.24 0-2.25-.988-2.25-2.203 0-1.215 1.01-2.203 2.25-2.203s2.25.988 2.25 2.203c0 1.215-1.01 2.203-2.25 2.203zm2.197-18.36H17.342l-2.935-14.687h34.55l-3.26 14.688z"/>
</svg>
