<svg xmlns="http://www.w3.org/2000/svg" width="54" height="54" viewBox="0 0 54 54">
    <path fill="#C2C2C2" d="M27 0C12.085 0 0 12.085 0 27s12.085 27 27 27 27-12.085 27-27S41.915 0 27 0zm21.034 16.548h-8.982c-.98-4.833-2.624-8.949-4.703-11.877 5.988 1.981 10.909 6.303 13.685 11.877zM36.58 27c0 2.493-.175 4.812-.469 6.968H17.887c-.293-2.156-.468-4.475-.468-6.968 0-2.493.175-4.812.468-6.968h18.225c.294 2.156.469 4.475.469 6.968zM27 3.484c2.929 0 6.685 4.801 8.503 13.064H18.497C20.315 8.285 24.071 3.484 27 3.484zM19.651 4.67c-2.068 2.917-3.723 7.033-4.703 11.877H5.966c2.776-5.574 7.697-9.896 13.685-11.877zM3.484 27c0-2.428.37-4.769 1.056-6.968h9.853c-.283 2.232-.458 4.551-.458 6.968s.164 4.736.458 6.968H4.54c-.686-2.2-1.056-4.54-1.056-6.968zm2.482 10.452h8.982c.98 4.833 2.624 8.949 4.703 11.877-5.988-1.981-10.909-6.303-13.685-11.877zM27 50.516c-2.929 0-6.685-4.801-8.503-13.064h17.006C33.685 45.715 29.929 50.516 27 50.516zm7.349-1.187c2.068-2.917 3.723-7.033 4.703-11.877h8.982c-2.776 5.574-7.697 9.896-13.685 11.877zm5.258-15.361c.283-2.232.458-4.551.458-6.968s-.164-4.736-.458-6.968h9.853c.686 2.2 1.056 4.54 1.056 6.968s-.37 4.769-1.056 6.968h-9.853z"/>
</svg>
