<svg width="100" height="70" viewBox="0 0 100 70" fill="none" xmlns="http://www.w3.org/2000/svg">
<g id="american-express">
<path id="Path" d="M100 63.3902C100 66.6725 97.3535 69.3333 94.0889 69.3333H5.91113C2.64648 69.3335 0 66.6725 0 63.3902V5.94296C0 2.66084 2.64648 0 5.91113 0H94.0889C97.3537 0 100 2.66084 100 5.94296V63.3902Z" fill="#306FC5"/>
<path id="Path_2" opacity="0.15" d="M4.15506 63.39V5.94295C4.15506 2.66084 6.77204 0 9.99981 0H5.84416C2.61659 0 0 2.66064 0 5.94295V63.3902C0 66.6725 2.61659 69.3333 5.84436 69.3333H10C6.77223 69.3333 4.15506 66.6723 4.15506 63.39Z" fill="#202121"/>
<g id="Group">
<path id="Path_3" d="M14.876 27.4016H17.866L16.3714 23.584L14.876 27.4016Z" fill="white"/>
<path id="Path_4" d="M30.7773 40.2168V41.9895H35.8062V43.8988H30.7773V45.9444H36.3496L38.9317 43.0805L36.4856 40.2168H30.7773Z" fill="white"/>
<path id="Path_5" d="M70.0544 23.584L68.4233 27.4016H71.5496L70.0544 23.584Z" fill="white"/>
<path id="Path_6" d="M45.3195 47.0341V39.2627L41.7856 43.0805L45.3195 47.0341Z" fill="white"/>
<path id="Path_7" d="M51.9793 41.4444C51.8433 40.6264 51.2992 40.2168 50.4833 40.2168H47.6299V42.6709H50.6201C51.4354 42.6711 51.9793 42.2623 51.9793 41.4444Z" fill="white"/>
<path id="Path_8" d="M61.4918 42.3988C61.7637 42.2621 61.9001 41.8527 61.9001 41.4445C62.0362 40.8996 61.7637 40.6265 61.4918 40.49C61.2207 40.3535 60.8124 40.3535 60.4053 40.3535H57.6865V42.5353H60.4051C60.8122 42.5353 61.2205 42.5353 61.4918 42.3988Z" fill="white"/>
<path id="Shape" fill-rule="evenodd" clip-rule="evenodd" d="M81.0621 21.6751V20.0391H81.0625H87.1784V33.4004H81.1985H81.0621H80.791L79.5672 31.3557V32.0373V33.4004H71.6849L70.8695 31.2195H68.9673L68.1519 33.4004H64.0741C62.4431 33.4004 61.2207 32.992 60.4053 32.5824V33.4004H50.6198V30.401V30.401C50.6198 30.1686 50.6198 30.0682 50.5701 30.0248C50.5323 29.9918 50.4656 29.9918 50.3483 29.9918H50.0759V33.5369H49.9398H34.3103H31.1844V33.4002V31.9008L30.5052 33.5367H26.5643L25.8843 31.9008V33.4002V33.5369H18.0024L17.1869 31.3555H15.4202L14.6044 33.4002L14.5551 33.5369H14.4684H7.53696H7.47949L7.53696 33.4002L10.6625 26.4469L13.381 20.0391H19.2249H19.361L20.0406 21.6751V20.0391H22.0794H26.9718L28.4664 23.4477L29.962 20.0391H51.8432C52.9305 20.0391 53.7459 20.3122 54.4253 20.8573V20.1755V20.0391H60.5409V20.8573C61.6276 20.312 62.8514 20.0391 64.3462 20.0391H73.0443L73.8602 21.6751V20.0391H80.2472L81.0621 21.6751ZM33.6309 31.4922H34.9901V21.9483H31.3201L28.6021 28.4924L28.5585 28.6338L27.3271 25.8287L25.6124 22.0847H25.6077L25.5436 21.9481H22.7582H21.9429V31.0828L18.1376 21.9481H14.7402L10.7197 31.4922H13.1088L14.0603 29.4471H18.6816L19.6329 31.4922H24.2534V23.9932L27.515 31.4922H28.691H29.4179H29.518L32.6796 24.3022V24.3059L32.8157 23.9932V30.6747V31.4922H33.6309ZM44.3682 23.9932H39.0677V25.7655H44.2322V27.6742H39.0677V29.5836H44.3682V31.6281H36.7574V21.9483H44.3682V23.9932ZM54.0741 27.5171C54.0698 27.5142 54.0653 27.512 54.0618 27.5089C53.6552 27.0844 53.2018 26.9928 53.2018 26.9928C53.8693 26.7244 54.7977 25.9283 54.8291 24.4773C54.8139 23.4238 54.4116 22.7585 53.7457 22.3573C53.0659 21.9483 52.2501 21.9483 51.0277 21.9483H45.8629V31.4924H48.1727V28.0838H50.6198C51.2605 28.0838 51.6465 28.0859 51.8502 28.2183C51.9917 28.2787 52.1217 28.3636 52.2501 28.4924C52.6584 29.0377 52.6584 29.8559 52.6584 30.4012V31.4924H54.6966V29.5836C54.6966 29.5006 54.6947 29.424 54.6915 29.3489L54.6919 29.3371C54.6919 29.3333 54.6916 29.3297 54.6912 29.3262C54.6909 29.3227 54.6906 29.3192 54.6906 29.3155L54.6884 29.2769C54.6779 28.5302 54.4674 28.021 54.207 27.6787C54.1695 27.6263 54.1255 27.5716 54.0741 27.5171ZM58.6384 31.4922H56.3277V21.9481H58.6384V31.4922ZM85.14 31.4922H85.1404V31.4926H85.14V31.4922ZM85.14 31.4922V22.0853H82.8286V28.7657L78.888 22.0853H75.4906V27.4022V27.6746V30.754V31.2198L71.6847 22.0851H69.6465H68.2868L65.1613 29.5838H64.21C63.5306 29.5838 62.9874 29.4473 62.5787 29.0377C62.0357 28.4924 61.8997 27.8108 61.8997 26.7198C61.8997 25.7655 62.1718 24.9477 62.5787 24.5389C63.1234 24.1291 63.5304 23.9932 64.3458 23.9932H66.5208V21.9483H64.3458C62.8512 21.9483 61.6274 22.2202 60.9484 23.0389C59.9972 24.1293 59.7257 25.4936 59.7257 26.8569C59.7257 28.6291 60.133 29.7198 60.9484 30.5379C61.7635 31.3559 63.1234 31.6283 64.21 31.6283H66.7921L67.6076 29.4473H72.3647L73.1802 31.4924H75.4908V31.4981H77.7868V30.2506L77.8011 30.2647V24.2657L82.15 31.4922H85.14Z" fill="white"/>
<path id="Path_9" d="M52.1242 25.9232C52.1638 25.8806 52.1998 25.8324 52.2303 25.7771C52.3534 25.5816 52.4945 25.2294 52.4185 24.7489C52.4154 24.7047 52.4074 24.6639 52.398 24.6245C52.3955 24.6136 52.3958 24.6039 52.3929 24.593L52.3915 24.5932C52.3239 24.3596 52.1513 24.2161 51.9791 24.129C51.7067 23.9932 51.299 23.9932 50.8914 23.9932H48.1729V26.1749H50.8914C51.299 26.1749 51.7069 26.1749 51.9791 26.0383C52.02 26.0175 52.0563 25.9892 52.0913 25.9573L52.0917 25.959C52.0919 25.9589 52.1058 25.9443 52.1242 25.9232Z" fill="white"/>
<path id="Shape_2" fill-rule="evenodd" clip-rule="evenodd" d="M92.4793 42.5353C92.8869 43.2169 93.1584 44.1716 93.1584 45.1259C93.1584 45.2149 93.1548 45.3022 93.1498 45.3904L93.1578 45.3981C93.155 45.4287 93.1511 45.4593 93.1473 45.4899L93.1472 45.4902L93.1412 45.5394C93.0239 47.1294 92.2352 48.4626 90.9839 49.2157C90.1685 49.7614 88.9444 49.8977 87.722 49.8977H81.8775V49.6244V49.0791C81.1981 49.6244 79.9757 49.8977 78.7516 49.8977H60.2688V49.6244V46.7616C60.2688 46.557 60.2688 46.4547 60.2177 46.4036C60.1666 46.3526 60.0646 46.3526 59.8605 46.3526H59.5894V49.6244V49.8977H53.4735V49.6244V46.2161C52.5222 46.6257 51.2984 46.6257 50.3479 46.6257H49.668V48.3981V49.7614H49.5327H49.3967H49.0843H42.193H42.0566L40.3532 47.7894L38.3881 49.7614H26.4282V37.4769V36.3998V35.9902H37.1645H38.0904H38.6594L40.4263 38.0355L42.3294 35.9902H50.4826C51.2984 35.9902 52.9301 36.1269 53.6095 36.8081V36.4V35.9904H60.9486C61.6276 35.9904 63.1238 36.1271 63.9387 36.8083V36.4002V35.9906H75.0827V36.8085C75.6271 36.2636 76.8494 35.9906 77.8013 35.9906H84.0527V36.8085C84.0527 36.8085 85.0812 35.9906 85.9287 35.9906H92.4731V36.4002H92.4793V42.5353ZM47.6294 44.3081H50.3481C52.386 44.3081 54.2887 43.7622 54.2887 41.0355C54.2887 40.6787 54.2473 40.3645 54.1759 40.082C53.5827 38.6551 52.0173 38.3091 50.6194 38.3091H43.4165L40.5621 41.4445L40.4933 41.5161L39.9859 40.9608L37.5725 38.3089H28.7385V47.8526H37.4364L40.4263 44.7161L40.5533 44.8628L40.5623 44.8528L43.1623 47.8526H47.6294V46.3528V45.5345V44.7161V44.3081ZM63.9387 44.1714C64.2102 44.5794 64.3462 45.1257 64.3462 45.9442V47.8524H62.0361V46.6257C62.0361 46.0794 62.0361 45.1257 61.6278 44.7161C61.3567 44.3081 60.8124 44.3081 59.9975 44.3081H57.5514V47.8526H55.2412V38.1724H60.4053C61.4918 38.1724 62.4431 38.1724 63.1238 38.581C63.8028 38.9904 64.3462 39.6722 64.3462 40.763C64.3462 42.2624 63.3953 43.0804 62.7155 43.3536C63.3953 43.6251 63.8028 43.8987 63.9387 44.1714ZM68.0155 40.2167H73.3166V38.1722H65.7058V47.8524H73.3166V45.8075H68.0155V43.8985H73.1802V41.9893H68.0155V40.2167ZM79.0243 47.8526H74.675V45.8077H79.0243C79.4312 45.8077 79.7037 45.8077 79.9761 45.5347C80.1122 45.3981 80.2472 45.1259 80.2472 44.853C80.2472 44.5796 80.1122 44.3083 79.9761 44.1716C79.8397 44.0353 79.5674 43.8989 79.1599 43.8989C78.9805 43.8876 78.7983 43.8782 78.6151 43.8687L78.615 43.8687C76.5768 43.7636 74.4031 43.6514 74.4031 40.8996C74.4031 39.5361 75.2186 38.0361 77.6651 38.0361H82.1498V40.3536H77.9369C77.5294 40.3536 77.2572 40.3536 76.9851 40.49C76.714 40.6267 76.714 40.8996 76.714 41.172C76.714 41.5812 76.9851 41.7177 77.257 41.853C77.5294 41.9896 77.8009 41.9896 78.0724 41.9896H79.2957C80.5191 41.9896 81.3343 42.2624 81.8779 42.8079C82.2858 43.2171 82.5577 43.8989 82.5577 44.853C82.5577 46.8975 81.3345 47.8526 79.0243 47.8526ZM87.8578 47.8526C89.2174 47.8526 90.1693 47.4436 90.7122 46.8975C91.2556 46.3528 91.5275 45.6712 91.5275 44.853C91.5275 44.6763 91.5097 44.5167 91.4855 44.3638C91.2067 42.904 89.9605 42.3447 89.5841 42.2081C89.173 42.0632 88.7239 41.9896 88.1299 41.9896H87.0422H86.9071C86.6351 41.9896 86.3632 41.9896 86.0917 41.853C85.6834 41.7177 85.5474 41.5812 85.5474 41.172C85.5474 40.8996 85.6834 40.6267 85.8202 40.49C86.0917 40.3536 86.3632 40.3536 86.7711 40.3536H86.9071H87.9941H90.9845V38.0361H86.4992C86.2471 38.0361 86.0168 38.0555 85.7989 38.0857C83.9763 38.4334 83.2373 39.604 83.2373 40.8998C83.2373 43.6513 85.4115 43.7636 87.4491 43.8687C87.6324 43.8782 87.8146 43.8876 87.9941 43.8989C88.402 43.8989 88.6735 44.0353 88.8095 44.1716C88.9449 44.3083 89.0814 44.5796 89.0814 44.853C89.0814 45.1259 88.9449 45.3981 88.8095 45.5347C88.538 45.8077 88.2655 45.8077 87.8576 45.8077H83.5097V47.8526H87.8578Z" fill="white"/>
</g>
</g>
</svg>
