
<svg width="18" height="14" viewBox="0 0 18 14" fill="none" xmlns="http://www.w3.org/2000/svg">
	<g clip-path="url(#clip0)">
		<path d="M6.78653 0H10.9624C10.9624 0 13.1514 0 15.0248 1.38302C15.0248 1.38302 17.9484 3.09601 17.9928 6.97816C17.9928 6.97816 18.1949 10.2877 15.0692 12.5054C15.0692 12.5054 13.526 13.801 10.8933 14H6.78653C6.78653 14 3.95169 13.9757 1.80707 11.6707C1.80707 11.6707 -0.0663905 9.71508 -0.0022985 7.00243C-0.0022985 7.00243 -0.0910412 4.13449 2.00921 2.04783C2.00921 2.04298 3.74955 0.131023 6.78653 0Z" fill="#0078BD"/>
		<path d="M7.75566 13.4058C11.362 13.1107 14.0425 9.99388 13.7428 6.44419C13.443 2.89449 10.2764 0.256092 6.67004 0.551168C3.06367 0.846243 0.383161 3.96305 0.682947 7.51275C0.982733 11.0624 4.14929 13.7008 7.75566 13.4058Z" fill="white"/>
		<path d="M5.73846 3.18799V10.7727C5.73846 10.7727 3.0811 9.87014 3.0811 6.86147C3.0811 6.85662 3.03673 4.2847 5.73846 3.18799Z" fill="#0078BD"/>
		<path d="M8.70312 3.1875V10.7722C8.70312 10.7722 11.3605 9.86965 11.3605 6.86098C11.3605 6.85613 11.4048 4.28421 8.70312 3.1875Z" fill="#0078BD"/>
	</g>
	<defs>
		<clipPath id="clip0">
			<rect width="18" height="14" fill="white"/>
		</clipPath>
	</defs>
</svg>
