<svg width="37" height="7" viewBox="0 0 37 7" fill="none" xmlns="http://www.w3.org/2000/svg">    <path d="M19.5358 0.173828C17.7993 0.173828 16.4102 1.56302 16.4102 3.21268C16.4102 5.036 17.7993 6.33836 19.5358 6.33836C21.2723 6.33836 22.6615 4.94917 22.6615 3.29951C22.6615 1.56302 21.2723 0.173828 19.5358 0.173828Z" fill="url(#paint0_radial)"/>    <path d="M1.64967 0.260254H0V6.16432H1.64967C2.51791 6.16432 3.21251 5.99067 3.73345 5.46972C4.42805 4.94877 4.77534 4.08053 4.77534 3.21229C4.86217 1.4758 3.5598 0.260254 1.64967 0.260254ZM3.03886 4.6883C2.69156 5.0356 2.17061 5.12242 1.47602 5.12242H1.12872V1.21532H1.47602C2.25744 1.21532 2.69156 1.38897 3.03886 1.73627C3.47298 2.08357 3.64663 2.60451 3.64663 3.21229C3.64663 3.82006 3.38615 4.341 3.03886 4.6883Z" fill="white"/>    <path d="M6.51104 0.260254H5.38232V6.16432H6.51104V0.260254Z" fill="white"/>    <path d="M9.28868 2.51791C8.59409 2.25744 8.42044 2.08379 8.42044 1.73649C8.42044 1.38919 8.76774 1.04189 9.28868 1.04189C9.63598 1.04189 9.89646 1.21554 10.2438 1.47602L10.8515 0.694595C10.3306 0.260473 9.72281 0 9.11503 0C8.07314 0 7.29172 0.694595 7.29172 1.64966C7.29172 2.43108 7.63902 2.86521 8.76774 3.29933C9.20186 3.47298 9.46233 3.5598 9.54916 3.64663C9.80963 3.82028 9.89646 3.99392 9.89646 4.2544C9.89646 4.77534 9.54916 5.12264 9.02821 5.12264C8.50726 5.12264 8.07314 4.86217 7.81267 4.34122L7.03125 5.03582C7.5522 5.81724 8.15997 6.16454 9.11503 6.16454C10.3306 6.16454 11.112 5.38312 11.112 4.2544C11.0252 3.47298 10.6779 3.03886 9.28868 2.51791Z" fill="white"/>    <path d="M11.375 3.21259C11.375 4.94908 12.7642 6.25145 14.5007 6.25145C15.0216 6.25145 15.4558 6.16463 15.9767 5.90415V4.51496C15.5426 4.94908 15.1085 5.12273 14.5875 5.12273C13.4588 5.12273 12.5905 4.25449 12.5905 3.12577C12.5905 1.99705 13.4588 1.12881 14.5007 1.12881C15.0216 1.12881 15.4558 1.30246 15.9767 1.8234V0.434212C15.4558 0.173739 15.0216 0.0869141 14.5875 0.0869141C12.7642 0.173739 11.375 1.56293 11.375 3.21259Z" fill="white"/>    <path d="M25.2662 4.25418L23.7033 0.260254H22.4878L24.9189 6.33797H25.6135L28.1314 0.260254H26.9158L25.2662 4.25418Z" fill="white"/>    <path d="M28.6521 6.16432H31.9514V5.20925H29.7808V3.55958H31.8646V2.60451H29.7808V1.30215H31.9514V0.260254H28.6521V6.16432Z" fill="white"/>    <path d="M36.4648 1.99723C36.4648 0.868513 35.6834 0.260742 34.381 0.260742H32.6445V6.16481H33.7733V3.82055H33.9469L35.5097 6.16481H36.8989L35.0756 3.6469C35.9439 3.56007 36.4648 2.9523 36.4648 1.99723ZM34.1206 3.03913H33.7733V1.21581H34.1206C34.8151 1.21581 35.2493 1.47628 35.2493 2.08406C35.2493 2.69183 34.902 3.03913 34.1206 3.03913Z" fill="white"/>    <defs>        <radialGradient id="paint0_radial" cx="0" cy="0" r="1" gradientUnits="userSpaceOnUse" gradientTransform="translate(19.5314 3.25557) scale(3.10805)">            <stop offset="0.005618" stop-color="#FFF2E8"/>            <stop offset="0.0960988" stop-color="#FEEDDF"/>            <stop offset="0.2438" stop-color="#FDE1C7"/>            <stop offset="0.4303" stop-color="#FACD9F"/>            <stop offset="0.6484" stop-color="#F6B168"/>            <stop offset="0.8901" stop-color="#F08E22"/>            <stop offset="1" stop-color="#EE7D00"/>        </radialGradient>    </defs></svg>