
<svg width="22" height="17" viewBox="0 0 22 17" fill="none" xmlns="http://www.w3.org/2000/svg">
	<path d="M22 13.5563C22 15.4155 20.4507 16.9648 18.5916 16.9648H0V3.40845C0 1.5493 1.54929 0 3.40845 0H22V13.5563Z" fill="white"/>
	<path d="M15.9575 10.0705H17.3519C17.4293 10.0705 17.5068 10.0705 17.5068 10.0705C17.7392 9.99303 17.9716 9.76063 17.9716 9.45077C17.9716 9.14091 17.7392 8.90852 17.5068 8.83105C17.4294 8.83105 17.3519 8.83105 17.3519 8.83105H15.9575V10.0705Z" fill="url(#paint0_linear)"/>
	<path d="M17.1971 1.16211C15.8802 1.16211 14.7183 2.24662 14.7183 3.64098V6.19732H18.2042C18.2816 6.19732 18.3591 6.19732 18.4366 6.19732C19.2112 6.27479 19.8309 6.66211 19.8309 7.35929C19.8309 7.90155 19.4436 8.36634 18.7464 8.4438C19.5211 8.52127 20.1408 8.90859 20.1408 9.60577C20.1408 10.3804 19.4436 10.8452 18.5915 10.8452H14.7957V15.803H18.3591C19.676 15.803 20.838 14.7185 20.838 13.3241V1.16211H17.1971Z" fill="url(#paint1_linear)"/>
	<path d="M17.8167 7.43679C17.8167 7.12693 17.5843 6.89453 17.3519 6.89453C17.3519 6.89453 17.2744 6.89453 17.197 6.89453H15.9575V8.0565H17.2744C17.3519 8.0565 17.4293 8.0565 17.4293 8.0565C17.5843 7.97904 17.8167 7.82411 17.8167 7.43679Z" fill="url(#paint2_linear)"/>
	<path d="M3.64229 1.16211C2.32539 1.16211 1.16341 2.24662 1.16341 3.64098V9.68324C1.86059 9.9931 2.55778 10.2255 3.25497 10.2255C4.10708 10.2255 4.57185 9.68324 4.57185 8.98606V6.11986H6.66341V8.98606C6.66341 10.0706 5.96623 11.0001 3.64229 11.0001C2.24792 11.0001 1.08594 10.6903 1.08594 10.6903V15.8804H4.64932C5.96623 15.8804 7.12821 14.7959 7.12821 13.4015V1.16211H3.64229Z" fill="url(#paint3_linear)"/>
	<path d="M10.3812 1.16211C9.0643 1.16211 7.90234 2.24662 7.90234 3.64098V6.81704C8.52206 6.27479 9.60656 5.96493 11.3108 6.04239C12.2404 6.11986 13.2474 6.35225 13.2474 6.35225V7.35929C12.7826 7.1269 12.1629 6.89451 11.3883 6.81704C10.0714 6.73958 9.2967 7.35929 9.2967 8.52127C9.2967 9.68324 10.0714 10.303 11.3883 10.2255C12.1629 10.148 12.7826 9.91563 13.2474 9.68324V10.6903C13.2474 10.6903 12.2404 10.9227 11.3108 11.0001C9.60656 11.0776 8.52206 10.7677 7.90234 10.2255V15.8804H11.4657C12.7826 15.8804 13.9446 14.7959 13.9446 13.4015V1.16211H10.3812Z" fill="url(#paint4_linear)"/>
	<defs>
		<linearGradient id="paint0_linear" x1="14.7285" y1="9.433" x2="20.7804" y2="9.433" gradientUnits="userSpaceOnUse">
			<stop stop-color="#007940"/>
			<stop offset="0.2285" stop-color="#00873F"/>
			<stop offset="0.7433" stop-color="#40A737"/>
			<stop offset="1" stop-color="#5CB531"/>
		</linearGradient>
		<linearGradient id="paint1_linear" x1="14.7274" y1="8.51005" x2="20.7742" y2="8.51005" gradientUnits="userSpaceOnUse">
			<stop stop-color="#007940"/>
			<stop offset="0.2285" stop-color="#00873F"/>
			<stop offset="0.7433" stop-color="#40A737"/>
			<stop offset="1" stop-color="#5CB531"/>
		</linearGradient>
		<linearGradient id="paint2_linear" x1="14.7376" y1="7.44585" x2="20.7895" y2="7.44585" gradientUnits="userSpaceOnUse">
			<stop stop-color="#007940"/>
			<stop offset="0.2285" stop-color="#00873F"/>
			<stop offset="0.7433" stop-color="#40A737"/>
			<stop offset="1" stop-color="#5CB531"/>
		</linearGradient>
		<linearGradient id="paint3_linear" x1="1.18057" y1="8.51189" x2="7.32529" y2="8.51189" gradientUnits="userSpaceOnUse">
			<stop stop-color="#1F286F"/>
			<stop offset="0.4751" stop-color="#004E94"/>
			<stop offset="0.8261" stop-color="#0066B1"/>
			<stop offset="1" stop-color="#006FBC"/>
		</linearGradient>
		<linearGradient id="paint4_linear" x1="7.92289" y1="8.49509" x2="13.888" y2="8.49509" gradientUnits="userSpaceOnUse">
			<stop stop-color="#6C2C2F"/>
			<stop offset="0.1735" stop-color="#882730"/>
			<stop offset="0.5731" stop-color="#BE1833"/>
			<stop offset="0.8585" stop-color="#DC0436"/>
			<stop offset="1" stop-color="#E60039"/>
		</linearGradient>
	</defs>
</svg>
