
<svg width="30" height="10" viewBox="0 0 30 10" fill="none" xmlns="http://www.w3.org/2000/svg">
	<g clip-path="url(#clip0)">
		<path d="M13.0008 9.84572H10.5615L12.0955 0.181641H14.5347L13.0008 9.84572Z" fill="#005CA9"/>
		<path d="M8.49958 0.181602L6.16094 6.82243L5.88433 5.40124L5.05448 1.03431C5.05448 1.03431 4.9539 0.155762 3.89774 0.155762H0.0502934L0 0.33664C0 0.33664 1.18189 0.595038 2.56496 1.44775L4.70243 9.84568H7.24225L11.14 0.181602H8.49958Z" fill="#005CA9"/>
		<path d="M27.7374 9.84572H29.9754L28.014 0.181641H26.0525C25.1472 0.181641 24.9209 0.905155 24.9209 0.905155L21.2998 9.84572H23.8396L24.3426 8.39869H27.4607L27.7374 9.84572ZM25.0467 6.40903L26.3291 2.79146L27.0584 6.40903H25.0467Z" fill="#005CA9"/>
		<path d="M21.4773 2.50699L21.8294 0.439804C21.8294 0.439804 20.7481 0.0263672 19.6165 0.0263672C18.4095 0.0263672 15.5176 0.569003 15.5176 3.2305C15.5176 5.73696 18.9124 5.7628 18.9124 7.08063C18.9124 8.39846 15.8696 8.1659 14.8638 7.33903L14.5117 9.50957C14.5117 9.50957 15.593 10.0522 17.2779 10.0522C18.9375 10.0522 21.4773 9.17365 21.4773 6.74471C21.4773 4.23825 18.0574 4.0057 18.0574 2.89458C18.0574 1.75763 20.4212 1.91267 21.4773 2.50699Z" fill="#005CA9"/>
		<path d="M5.88433 5.3754L5.05448 1.03431C5.05448 1.03431 4.9539 0.155762 3.89774 0.155762H0.0502934L0 0.33664C0 0.33664 1.86085 0.724237 3.62112 2.22295C5.3311 3.61829 5.88433 5.3754 5.88433 5.3754Z" fill="#F7A823"/>
	</g>
	<defs>
		<clipPath id="clip0">
			<rect width="30" height="10" fill="white"/>
		</clipPath>
	</defs>
</svg>
